<svg xmlns="http://www.w3.org/2000/svg" width="100" height="100" viewBox="0 0 100 100" fill="none">
  <defs>
    <linearGradient id="q-logo-grad" x1="0%" y1="0%" x2="100%" y2="100%">
      <stop offset="0%" stop-color="#0d9488" />
      <stop offset="100%" stop-color="#0f766e" />
    </linearGradient>
  </defs>
  <path 
    d="M 68 62 C 75 53 74 38 64 30 C 53 21 38 23 30 33 C 21 44 23 59 33 67 C 42 74 54 74 62 67 C 63 66 65 65 66 66 L 76 76" 
    stroke="url(#q-logo-grad)" 
    stroke-width="6.5" 
    stroke-linecap="round" 
    fill="none" 
  />
  <path 
    d="M 73 73 L 70 76 M 75 75 L 72 78 M 77 77 L 74 80 M 76 76 L 81 81" 
    stroke="url(#q-logo-grad)" 
    stroke-width="5" 
    stroke-linecap="round" 
  />
  <rect x="36" y="37" width="9" height="9" stroke="#0d9488" stroke-width="1.8" fill="none"/>
  <rect x="39" y="40" width="3" height="3" fill="#0d9488"/>
  <rect x="36" y="51" width="9" height="9" stroke="#0d9488" stroke-width="1.8" fill="none"/>
  <rect x="39" y="54" width="3" height="3" fill="#0d9488"/>
  <rect x="50" y="37" width="9" height="9" stroke="#0d9488" stroke-width="1.8" fill="none"/>
  <rect x="53" y="40" width="3" height="3" fill="#0d9488"/>
  <rect x="49" y="51" width="3" height="3" fill="#0d9488"/>
  <rect x="54" y="56" width="3" height="3" fill="#0d9488"/>
  <path d="M 64 42 A 12 12 0 0 1 64 54" stroke="#0d9488" stroke-width="2" stroke-linecap="round" fill="none"/>
  <path d="M 68 39 A 17 17 0 0 1 68 57" stroke="#0d9488" stroke-width="2" stroke-linecap="round" fill="none"/>
</svg>